# xmcd
#
# Track frame offsets:
#	150
#	9650
#	21058
#	31017
#	41165
#	52492
#	62565
#	72710
#	83643
#	96020
#	106752
#	118871
#	129951
#	141736
#	151496
#	163462
#	172446
#	183516
#	193062
#	204414
#	214235
#	226856
#
# Disc length: 3185 seconds
#
# Revision: 1
# Processed by: cddbd v1.5.2PL0 Copyright (c) Steve Scherf et al.
# Submitted via: audiograbber 1.83.01
#
DISCID=4b0c6f16
DTITLE=Various Artist - Stompin' 24: Crazed Rhythm 'n' Blues Pounders
DYEAR=1900
DGENRE=Blues
TTITLE0=The Nitehawks - Boogie Chillun'
TTITLE1=June Bateman - Possum Belly Overalls
TTITLE2=Al Reed - Top Notch Grade 'A'
TTITLE3=King Coleman - Alley Rat
TTITLE4=Billy Peek - Prancing
TTITLE5=Billy Lamont - Hear Me Now
TTITLE6=Bobby Davis - Going To New Orleans
TTITLE7=Big Boy Groves - Bucket O Blood
TTITLE8=Elmore James - Cry For Me Baby
TTITLE9=Phil Flowers - Move On
TTITLE10=Bennie Bunn - Rock'n'Roll Luau
TTITLE11=Icky Renrut - Jack Rabbit
TTITLE12=Little Arthur Mathews - Someday Baby
TTITLE13=Eddie Renae and The Titans - Snake Leg
TTITLE14=Dave 'Baby' Cortez - Honey Baby
TTITLE15=Teddy Reynolds - Louise
TTITLE16=Kitty Noble - Till The Cows Come Home
TTITLE17=Rufus Gordon - Long Tall Sally
TTITLE18=Jimmy Raney and Slim Slaughter - You Drink Too Much Booze
TTITLE19=Little Arthur Mathews - I'm Gonna Whale On You
TTITLE20=Big Mama Thornton - Tom Cat
TTITLE21=Tabby Thomas - Louisiana Top
EXTD=
EXTT0=
EXTT1=
EXTT2=
EXTT3=
EXTT4=
EXTT5=
EXTT6=
EXTT7=
EXTT8=
EXTT9=
EXTT10=
EXTT11=
EXTT12=
EXTT13=
EXTT14=
EXTT15=
EXTT16=
EXTT17=
EXTT18=
EXTT19=
EXTT20=
EXTT21=
PLAYORDER=
